<svg version="1.1" xmlns="http://www.w3.org/2000/svg" xmlns:xlink="http://www.w3.org/1999/xlink" width="48" height="48"><defs><linearGradient x1="6.92645" y1="13.00631" x2="45.12336" y2="39.04352" gradientUnits="userSpaceOnUse" id="color-1"><stop offset="0" stop-color="#000000" stop-opacity="0.22"></stop><stop offset="1" stop-color="#000000" stop-opacity="0"></stop></linearGradient><filter id="dropshadow-base"><feColorMatrix type="matrix" values="0 0 0 0 0  0 0 0 0 0  0 0 0 0 0  0 0 0 .8 0"></feColorMatrix> <feOffset dx="0" dy="1"></feOffset> <feGaussianBlur stdDeviation="1"></feGaussianBlur> <feComposite in="SourceGraphic"></feComposite></filter><filter id="dropshadow-banner" x="-10%" y="-10%" width="120%" height="130%"><feColorMatrix type="matrix" values="0 0 0 0 0  0 0 0 0 0  0 0 0 0 0  0 0 0 .4 0"></feColorMatrix> <feOffset dx="0" dy="1"></feOffset> <feGaussianBlur stdDeviation="0.5"></feGaussianBlur> <feComposite in="SourceGraphic"></feComposite></filter></defs><g fill="none" fill-rule="nonzero" stroke="none" stroke-width="none" stroke-linecap="butt" stroke-linejoin="miter" stroke-miterlimit="10" stroke-dasharray="" stroke-dashoffset="0" font-family="none" font-weight="none" font-size="none" text-anchor="none" style="mix-blend-mode: normal"><path d="M2,24c0,-12.15026 9.84974,-22 22,-22c12.15026,0 22,9.84974 22,22c0,12.15026 -9.84974,22 -22,22c-12.15026,0 -22,-9.84974 -22,-22z" id="base 1 5" fill="#e3a534" stroke-width="1"></path><path d="M40.26307,35.70459c-0.3059,0.29506 -0.63718,0.61207 -0.77539,0.7404l-0.27762,0.26097l-0.3609,-0.22209c-0.19988,-0.1166 -0.38311,-0.22209 -0.41087,-0.23321c-0.00385,-0.00128 -0.00717,-0.00325 -0.00994,-0.00601l-3.7021,-3.7021c-0.08233,0.17196 -0.1737,0.36387 -0.26902,0.56545c-0.18553,0.39236 -0.35441,0.7464 -0.47011,0.98728c0.25462,0.15951 0.5034,0.32585 0.74562,0.49865l0.51637,0.37202l4.04981,4.04981l-1.30481,0.01666l-1.30481,0.0111l-0.84951,-0.41087c-1.24929,-0.60521 -2.7151,-1.08272 -3.87001,-1.26039l-0.4664,-0.07219l-3.58098,-3.58098c-0.02222,0.24534 -0.06511,0.23721 -0.653,0.29644l1.69657,1.69657v0.29428c0,0.16657 -0.01666,0.48861 -0.03331,0.7218l-0.03886,0.42754h-0.22764c-0.40533,0 -1.71014,0.17212 -2.37642,0.31093c-1.21598,0.2554 -2.59296,0.75513 -3.65902,1.32146l-0.48306,0.2554l-1.32146,-0.0111l-1.32702,-0.01666l-3.45351,-3.45351c-0.29942,0.20252 -0.50901,0.34651 -0.5553,0.38306c-0.04443,0.03886 0.21099,0.38311 0.91058,1.22153l0.97722,1.166l-0.33314,0.33314l-0.33869,0.33314l-0.54413,-0.32759c-0.30538,-0.18323 -0.86063,-0.51082 -1.24374,-0.73847c-0.38311,-0.22209 -0.75513,-0.44419 -0.8273,-0.48861c-0.11105,-0.06662 -0.13881,-0.06662 -0.17768,-0.00555c-0.02221,0.04443 -0.28873,0.41642 -0.58856,0.8273l-0.54968,0.74956l-0.89949,0.01666l-0.89949,0.0111l-4.04981,-4.04981l0,-21.98739h34.1471l3.68238,3.68238c0.13252,0.37621 0.2551,0.75711 0.36743,1.14239l0,12.33786c-0.73834,2.53245 -1.91974,4.87606 -3.45466,6.94128zM29.82918,31.15062c-0.93875,-0.05205 -1.72275,-0.09257 -1.72942,-0.0859c-0.0092,0.0046 -0.03369,0.34522 -0.06078,0.80021c0.1652,0.03025 0.3714,0.06926 0.5695,0.10828c0.99105,0.19222 1.96863,0.48433 2.9065,0.8632zM24.52161,31.64528c-0.03742,0.00934 -0.07519,0.01879 -0.11328,0.02833c0.01764,-0.00015 0.03517,-0.00022 0.05252,-0.00022l0.08675,-0.00211zM10.97626,33.94712c0.37368,0.2217 0.85831,0.50788 1.13613,0.67458l0.54413,0.32759l0.33869,-0.33314l0.33314,-0.33314l-0.97722,-1.166c-0.69959,-0.83841 -0.95501,-1.18267 -0.91058,-1.22153c0.21099,-0.16657 3.81449,-2.5652 3.85335,-2.5652c0.00272,0 0.01195,0.00792 0.02701,0.02298l2.1854,2.1854l0.19177,-0.08739c0.24431,-0.1055 0.44419,-0.21099 0.44419,-0.23321c0,-0.01666 -0.21099,-0.64408 -0.4664,-1.3881c-0.26097,-0.74956 -0.4664,-1.36588 -0.4553,-1.37143c0.03638,-0.04002 2.02743,-0.55917 3.40541,-0.90146l-1.03065,-1.03065c-0.02824,-0.02824 -0.05378,-0.05971 -0.07606,-0.09447c-0.04443,-0.07219 -0.3609,-0.77734 -0.70515,-1.57133c-0.02962,-0.0683 -0.05923,-0.13653 -0.08867,-0.20428l-3.82924,-3.82924c-0.21063,-0.21063 -0.25781,-0.59965 -0.09089,-0.85812c0.1055,-0.17212 0.14991,-0.18878 1.21041,-0.43864l1.10491,-0.26652l0.29428,-0.89394c0.14298,-0.42417 0.29414,-0.84424 0.37272,-1.02145l-0.29233,-0.29233h-6.51904zM24.04996,27.01492c0.00712,-0.00712 0.90033,0.03955 1.92192,0.09662l-1.05593,-1.05593c-0.02274,0.0166 -0.04602,0.03356 -0.06986,0.05089c-0.52192,0.38311 -1.01053,0.74403 -1.08827,0.81065l-0.13881,0.1166l0.36834,0.81201c0.02781,-0.47025 0.05319,-0.82614 0.0626,-0.83084zM30.50562,28.851c0.29457,-0.6202 0.53032,-1.10426 0.54033,-1.11427c0.01542,-0.01542 0.26868,0.07856 2.0674,0.77948l-2.18614,-2.18614c-0.04269,-0.04269 -0.06812,-0.07182 -0.07003,-0.08135c0,-0.00255 0.00055,-0.00573 0.00164,-0.00948l-0.41806,-0.41806c-0.07217,-0.07774 -0.58299,-0.97167 -0.58299,-1.0272c0,-0.02319 0.07263,-0.08403 0.17857,-0.15446l-0.40545,-0.40545c-0.00029,-0.00029 -0.00055,-0.00058 -0.00077,-0.00089c-0.02221,-0.02221 -0.06664,-0.23876 -0.1055,-0.48306c-0.03331,-0.24431 -0.07772,-0.51082 -0.09438,-0.59966c-0.02776,-0.13324 -0.0111,-0.14991 0.11105,-0.14991c0.06016,0 0.19014,-0.01663 0.3179,-0.03958l-0.4256,-0.4256c-0.02037,-0.02037 -0.01831,-0.0597 -0.00336,-0.13448c0.01665,-0.08328 0.06107,-0.3498 0.09438,-0.59411c0.03888,-0.24431 0.08328,-0.46085 0.1055,-0.48306c0.01666,-0.02221 0.20543,-0.0111 0.41087,0.02776c0.26815,0.0416 0.35922,0.04856 0.40463,0.01126l-0.56265,-0.56265c-0.01623,-0.01623 -0.0252,-0.02903 -0.0252,-0.03717c0,-0.05552 0.51081,-0.94946 0.58299,-1.0272c0.01111,-0.01111 0.17768,0.06662 0.37756,0.17212c0.2665,0.14992 0.372,0.18323 0.42197,0.13326c0.09438,-0.09438 0.07774,-0.13881 -0.16102,-0.41642c-0.12771,-0.14437 -0.22209,-0.28873 -0.22209,-0.31649c0.00555,-0.03331 0.21099,-0.22209 0.46085,-0.43309l0.4553,-0.37202l0.59235,0.59235c0.02562,0.00193 0.04721,-0.01215 0.07394,-0.03711c0.07774,-0.07774 0.07219,-0.12214 -0.05552,-0.44419c-0.07774,-0.19433 -0.13881,-0.3609 -0.13881,-0.36645c0,-0.04988 1.17844,-0.41511 1.21579,-0.37777l0.50357,0.50357c0.00161,-0.04984 0.00188,-0.11291 0.00188,-0.19242c0,-0.21098 0.01665,-0.39976 0.03886,-0.41642c0.01665,-0.0222 0.31648,-0.03886 0.66628,-0.03886h0.62742l0.39327,0.39327c0.054,-0.13257 0.10406,-0.24198 0.11758,-0.26c0.02221,-0.02221 0.30538,0.05552 0.62187,0.16657l0.58299,0.21099l0.36991,0.36991l0.09092,-0.10341l0.31093,0.24985c0.17212,0.13326 0.39976,0.31649 0.49971,0.39978l0.17768,0.15547l2.60959,2.60959v-4.86173l-16.86391,0l3.97201,3.97201c0.08814,0.08814 0.12988,0.18269 0.15132,0.31444c0.06664,0.39421 -0.32202,0.77178 -0.69404,0.68294c-0.07774,-0.01666 -0.62185,-0.27762 -1.21041,-0.5719l-1.06606,-0.53859l-0.54413,0.18878c-0.29983,0.1055 -0.56635,0.20545 -0.59411,0.23321c-0.02776,0.0222 0.06662,0.21098 0.19988,0.42197c0.09531,0.14445 0.18497,0.28051 0.26934,0.40878c1.14696,0.00076 1.27164,0.01423 1.42756,0.11101c0.04506,0.02503 0.09349,0.06473 0.13769,0.10892l4.04981,4.04981c0.05384,0.05384 0.10138,0.11436 0.12883,0.16315c0.17212,0.33871 0.06107,0.75513 -0.26652,0.94946c-0.12018,0.07611 -0.21724,0.1002 -0.85836,0.10772zM39.84652,22.47868c0,-0.01091 -0.00477,-0.04804 -0.01313,-0.10377l-0.12395,-0.12395c-0.00172,0.00442 -0.00345,0.00885 -0.00516,0.01329c-0.06431,0.18007 -0.11537,0.27407 -0.17621,0.31266c0.18687,-0.02246 0.32387,-0.06034 0.31846,-0.09823zM40.92581,31.0037l0.13326,0.36645l-0.57744,0.20545c-0.32204,0.1166 -0.59966,0.18878 -0.62187,0.17212l-0.50856,-0.50856c-0.00196,0.05685 -0.00227,0.13046 -0.00227,0.22539v0.42197l-0.39709,-0.01019c0.45502,0.38284 0.92414,0.77706 1.41655,1.19069c0.25078,0.20828 0.46578,0.39704 0.5528,0.48406l0.15235,0.15235l0,-3.05169l-0.13795,-0.13795c-0.0204,0.00233 -0.03865,0.01498 -0.05977,0.03459c-0.07217,0.07774 -0.06662,0.12216 0.04997,0.4553zM33.59108,27.05037c-0.12214,0 -0.13881,0.01666 -0.11105,0.14991c0.00176,0.0094 0.00384,0.02078 0.00617,0.03392l0.12032,0.12032c0.00155,-0.00399 0.00311,-0.00798 0.00465,-0.01198c0.06401,-0.17923 0.11817,-0.27318 0.17763,-0.31211c-0.08316,0.01221 -0.15669,0.01994 -0.19773,0.01994z" fill="url(#color-1)" stroke-width="1"></path><path d="M6.92645,13.0063h34.1471v21.9874l-0.76068,-0.00555h-0.76623l0.7107,-0.67739c0.38867,-0.37201 0.70515,-0.69405 0.70515,-0.7107c0,-0.02221 -0.26651,-0.26096 -0.5941,-0.53303c-0.83286,-0.6996 -1.59908,-1.34367 -2.3431,-1.97109l-0.63852,-0.53858l-0.22209,0.19989c-0.1277,0.11105 -0.49971,0.46085 -0.83841,0.78844c-0.33314,0.32204 -0.73291,0.70515 -0.88838,0.84951l-0.27762,0.26096l-0.3609,-0.22209c-0.19989,-0.1166 -0.38311,-0.22209 -0.41088,-0.2332c-0.06663,-0.02221 0.02221,-0.24986 0.51082,-1.26039c0.51082,-1.07161 0.68294,-1.45472 0.66628,-1.46583c-0.0111,-0.00555 -0.25541,-0.1055 -0.54413,-0.21654c-0.28872,-0.11105 -0.93835,-0.3609 -1.44362,-0.56079c-2.22095,-0.86617 -2.51523,-0.97722 -2.53188,-0.96056c-0.0111,0.0111 -0.29983,0.60521 -0.63852,1.32146c-0.33869,0.71626 -0.62187,1.30481 -0.62742,1.31036c-0.02221,0.02776 -0.89393,-0.16657 -0.93835,-0.20544c-0.02221,-0.02221 -0.00555,-0.67184 0.03887,-1.44917c0.04442,-0.77733 0.07218,-1.41586 0.06663,-1.42141c-0.01666,-0.01666 -4.88054,-0.29428 -4.89719,-0.27762c-0.0111,0.00555 -0.04442,0.49971 -0.07773,1.09382c-0.02776,0.5941 -0.07218,1.23818 -0.08884,1.42696c-0.03331,0.38867 0.01666,0.3609 -0.69405,0.43309l-0.31093,0.03331l-0.46085,-1.34923c-0.24986,-0.74402 -0.4775,-1.37144 -0.49971,-1.39365c-0.03331,-0.03887 -4.64178,1.13824 -4.69731,1.19931c-0.0111,0.00555 0.19433,0.62187 0.45529,1.37144c0.25541,0.74402 0.4664,1.37144 0.4664,1.38809c0,0.02221 -0.19989,0.1277 -0.44419,0.2332l-0.43864,0.19989l-0.96056,-1.16045c-0.52748,-0.63297 -0.98277,-1.16045 -1.00498,-1.16045c-0.03887,0 -3.64236,2.39863 -3.85335,2.5652c-0.04442,0.03887 0.21099,0.38311 0.91059,1.22152l0.97722,1.166l-0.33314,0.33314l-0.33869,0.33314l-0.54413,-0.32759c-0.30538,-0.18323 -0.86062,-0.51082 -1.24373,-0.73847c-0.38311,-0.22209 -0.75512,-0.44419 -0.8273,-0.48861c-0.11105,-0.06663 -0.13881,-0.06663 -0.17768,-0.00555c-0.02221,0.04442 -0.28872,0.41643 -0.58855,0.8273l-0.54969,0.74957l-0.89948,0.01666l-0.89948,0.0111zM17.23166,13.98907c-0.19433,0.04997 -0.52192,0.28317 -0.67184,0.48306c-0.68849,0.89948 -0.04997,2.15432 1.08827,2.14877c0.90504,0 1.52135,-0.86062 1.26039,-1.749c-0.08884,-0.30538 -0.56079,-0.77733 -0.85507,-0.86062c-0.21654,-0.06108 -0.62742,-0.07218 -0.82175,-0.02221zM21.44591,15.5826c-0.16657,-0.0111 -0.49416,0.07773 -1.2937,0.3609c-0.93835,0.32759 -1.13824,0.42198 -1.64906,0.76068c-0.38311,0.25541 -0.61076,0.44974 -0.68294,0.57745c-0.06108,0.1055 -0.23875,0.5941 -0.40532,1.08827l-0.29428,0.89393l-1.10492,0.26651c-1.0605,0.24986 -1.10492,0.26651 -1.21042,0.43864c-0.17212,0.26651 -0.1166,0.67184 0.11105,0.87728c0.09439,0.08329 0.23875,0.15547 0.31649,0.15547c0.08329,0 0.70515,-0.14436 1.39365,-0.31649c0.92725,-0.23875 1.27705,-0.3498 1.37144,-0.43864c0.06663,-0.06663 0.20544,-0.38867 0.31093,-0.7107c0.1055,-0.32204 0.19989,-0.58855 0.21654,-0.58855c0.04442,0 1.18266,1.82673 1.20487,1.93778c0.01666,0.06108 -0.22765,0.27207 -0.79954,0.68849c-0.45529,0.32759 -0.86617,0.67184 -0.91614,0.76068c-0.1277,0.21654 -0.1166,0.43309 0.03887,0.78288c0.07218,0.16657 0.41643,0.94946 0.76068,1.74345c0.34425,0.79399 0.66073,1.49914 0.70515,1.57132c0.27762,0.43309 1.0605,0.35535 1.26594,-0.1277c0.13881,-0.34425 0.16102,-0.28872 -0.72736,-2.24316l-0.48861,-1.07716l0.13881,-0.1166c0.07773,-0.06663 0.56634,-0.42753 1.08827,-0.81065c0.79399,-0.57745 0.97167,-0.73847 1.09937,-0.96611c0.12215,-0.22209 0.14436,-0.31093 0.1166,-0.53303c-0.04997,-0.40532 -0.21654,-0.69405 -1.63795,-2.84837c-0.13326,-0.21099 -0.22765,-0.39977 -0.19989,-0.42198c0.02776,-0.02776 0.29428,-0.1277 0.5941,-0.2332l0.54413,-0.18878l1.06606,0.53858c0.58855,0.29428 1.13268,0.55524 1.21042,0.57189c0.37201,0.08884 0.76068,-0.28872 0.69405,-0.68294c-0.03887,-0.23875 -0.14436,-0.35535 -0.47195,-0.53303c-0.13881,-0.07218 -0.67739,-0.3609 -1.19931,-0.64408c-0.63852,-0.34425 -1.01608,-0.51637 -1.166,-0.53303zM35.29908,17.72582h-0.62742c-0.3498,0 -0.64963,0.01666 -0.66628,0.03887c-0.02221,0.01666 -0.03887,0.20544 -0.03887,0.41643c0,0.3609 -0.00555,0.38311 -0.1166,0.36646c-0.08884,-0.0111 -0.14991,-0.09994 -0.22765,-0.32204c-0.06108,-0.16657 -0.13326,-0.32759 -0.16102,-0.35535c-0.03331,-0.03887 -1.21597,0.32759 -1.21597,0.37756c0,0.00555 0.06108,0.17212 0.13881,0.36646c0.1277,0.32204 0.13326,0.36646 0.05552,0.44419c-0.08329,0.07773 -0.1166,0.04997 -0.37756,-0.23875l-0.28872,-0.31649l-0.45529,0.37201c-0.24986,0.21099 -0.45529,0.39977 -0.46085,0.43309c0,0.02776 0.09439,0.17212 0.22209,0.31649c0.23875,0.27762 0.25541,0.32204 0.16102,0.41643c-0.04997,0.04997 -0.15547,0.01666 -0.42198,-0.13326c-0.19989,-0.1055 -0.36646,-0.18323 -0.37756,-0.17212c-0.07218,0.07773 -0.583,0.97167 -0.583,1.02719c0,0.03331 0.14991,0.14436 0.33314,0.24986c0.35535,0.19433 0.3609,0.19433 0.27762,0.32204c-0.03887,0.06663 -0.1055,0.06663 -0.42753,0.01666c-0.20544,-0.03887 -0.39422,-0.04997 -0.41088,-0.02776c-0.02221,0.02221 -0.06663,0.23875 -0.1055,0.48306c-0.03331,0.2443 -0.07773,0.51082 -0.09439,0.5941c-0.02776,0.13881 -0.0111,0.15547 0.11105,0.15547c0.07773,0 0.27207,0.02776 0.42753,0.06108c0.21099,0.04442 0.27762,0.08329 0.27762,0.16102c0,0.07773 -0.06663,0.1166 -0.27762,0.16102c-0.15547,0.03331 -0.3498,0.06108 -0.42753,0.06108c-0.12215,0 -0.13881,0.01666 -0.11105,0.14991c0.01666,0.08884 0.06108,0.35535 0.09439,0.59966c0.03887,0.2443 0.08329,0.46085 0.1055,0.48306c0.01666,0.02221 0.20544,0.0111 0.41088,-0.02776c0.32204,-0.04997 0.38867,-0.04997 0.42753,0.01666c0.08329,0.1277 0.07773,0.1277 -0.27762,0.32204c-0.18323,0.1055 -0.33314,0.21654 -0.33314,0.24986c0,0.05552 0.51082,0.94946 0.583,1.02719c0.0111,0.0111 0.17768,-0.06663 0.37756,-0.17212c0.26651,-0.14991 0.37201,-0.18323 0.42198,-0.13326c0.09439,0.09439 0.07773,0.13881 -0.16102,0.41643c-0.1277,0.14436 -0.22209,0.28317 -0.22209,0.31649c0.00555,0.02776 0.21099,0.22209 0.46085,0.43309l0.45529,0.37201l0.28872,-0.31649c0.25541,-0.28872 0.29983,-0.31093 0.37201,-0.23875c0.07773,0.07218 0.07218,0.12215 -0.04997,0.45529l-0.13326,0.36646l0.583,0.21099c0.31649,0.11105 0.59966,0.18878 0.62187,0.16657c0.01666,-0.02221 0.08884,-0.18323 0.15547,-0.35535c0.08329,-0.2332 0.14991,-0.32204 0.2332,-0.33314c0.11105,-0.01666 0.1166,0.0111 0.13326,0.38867l0.01666,0.40532l0.65518,0.01666l0.64963,0.01666v-0.42198c0,-0.40532 0.00555,-0.42198 0.12215,-0.40532c0.08884,0.0111 0.14991,0.09994 0.2332,0.33314c0.06663,0.17212 0.13881,0.33314 0.15547,0.35535c0.02221,0.01666 0.29983,-0.05552 0.62187,-0.17212l0.57745,-0.20544l-0.13326,-0.36646c-0.1166,-0.33314 -0.12215,-0.37756 -0.04997,-0.45529c0.07773,-0.07218 0.1166,-0.04997 0.36646,0.2332l0.28317,0.32204l0.31093,-0.24986c0.17212,-0.13326 0.39977,-0.31649 0.49971,-0.39977l0.17768,-0.15547l-0.24986,-0.28872c-0.26651,-0.30538 -0.28317,-0.3498 -0.18323,-0.44974c0.04442,-0.04442 0.14991,-0.01666 0.41643,0.13881c0.19433,0.1055 0.36646,0.18878 0.37201,0.17768c0.0111,-0.0111 0.16102,-0.24986 0.32759,-0.53303c0.34425,-0.56079 0.3498,-0.52192 -0.11105,-0.76623c-0.31093,-0.16657 -0.32204,-0.17768 -0.2443,-0.29983c0.03887,-0.06108 0.1166,-0.06663 0.37201,-0.02776c0.18323,0.02776 0.3609,0.04997 0.40532,0.04997c0.06108,0 0.1055,-0.15547 0.17768,-0.55524c0.05552,-0.30538 0.09994,-0.583 0.09994,-0.61631c0.00555,-0.03887 -0.13881,-0.07773 -0.33314,-0.09994c-0.42753,-0.04997 -0.49416,-0.07773 -0.49416,-0.19989c0,-0.12215 0.06663,-0.14991 0.49416,-0.19989c0.19433,-0.02221 0.33869,-0.06108 0.33314,-0.09994c0,-0.03331 -0.04442,-0.31093 -0.09994,-0.61631c-0.07218,-0.39977 -0.1166,-0.55524 -0.17768,-0.55524c-0.04442,0 -0.22209,0.02221 -0.40532,0.04997c-0.25541,0.03887 -0.33314,0.03331 -0.37201,-0.02776c-0.07773,-0.12215 -0.06663,-0.13326 0.2443,-0.29983c0.15547,-0.08329 0.31649,-0.17768 0.3498,-0.20544c0.04442,-0.03331 -0.02221,-0.19989 -0.23875,-0.56079c-0.17212,-0.28317 -0.31649,-0.52192 -0.32759,-0.53303c-0.0111,-0.0111 -0.17768,0.07218 -0.37201,0.17768c-0.26651,0.15547 -0.37201,0.18323 -0.41643,0.13881c-0.09994,-0.09994 -0.08329,-0.14436 0.18323,-0.44974l0.24986,-0.28872l-0.17768,-0.15547c-0.09994,-0.08329 -0.32759,-0.26651 -0.49971,-0.39977l-0.31093,-0.24986l-0.28317,0.32204c-0.24986,0.28317 -0.28872,0.30538 -0.3609,0.2332c-0.07773,-0.07218 -0.07218,-0.12215 0.04997,-0.45529l0.13326,-0.36646l-0.583,-0.21099c-0.31649,-0.11105 -0.59966,-0.18878 -0.62187,-0.16657c-0.01666,0.02221 -0.08884,0.18323 -0.15547,0.35535c-0.08329,0.2332 -0.14436,0.32204 -0.2332,0.33314c-0.1166,0.01666 -0.12215,0 -0.12215,-0.39977zM22.53417,21.25713c-0.01666,-0.0111 -0.09994,0.07218 -0.17768,0.18878c-0.08329,0.11105 -0.32204,0.33314 -0.53858,0.49416l-0.39422,0.29428l0.38867,0.56079c0.58855,0.87172 0.41643,0.8162 2.43194,0.8162c1.58798,0 1.71013,-0.00555 1.8767,-0.11105c0.32759,-0.19433 0.43864,-0.61076 0.26651,-0.94946c-0.04997,-0.08884 -0.16657,-0.21654 -0.26651,-0.27207c-0.16102,-0.09994 -0.28872,-0.11105 -1.54356,-0.11105h-1.36588l-0.31649,-0.44419c-0.17768,-0.2443 -0.33869,-0.45529 -0.3609,-0.4664zM33.92764,19.33601c0.02221,0 0.03887,0.37201 0.03887,0.82175v0.82175l-0.18878,0.06663c-0.27762,0.09994 -0.68294,0.48306 -0.87728,0.8273l-0.16657,0.29428h-1.6435l0.07218,-0.27207c0.29428,-1.12713 1.18266,-2.05993 2.29868,-2.42083c0.2332,-0.07218 0.43864,-0.13326 0.4664,-0.13881zM35.29908,19.33045l0.1277,0.03331c1.37699,0.37756 2.35421,1.30481 2.67624,2.53188l0.07218,0.27207h-1.6435l-0.16657,-0.29983c-0.18878,-0.32759 -0.53303,-0.64963 -0.85507,-0.79954l-0.20544,-0.09439l-0.00555,-0.82175zM34.69942,21.85123c0.52748,0.02776 0.89948,0.41088 0.89948,0.92725c0,0.83286 -1.01608,1.25484 -1.62685,0.67739c-0.49416,-0.4664 -0.37756,-1.22152 0.22765,-1.53246c0.1277,-0.06108 0.28317,-0.08884 0.49971,-0.07218zM31.09038,23.38924h1.6435l0.16657,0.29428c0.19433,0.34425 0.59966,0.72736 0.87728,0.8273l0.18878,0.06663v0.82175c0,0.44974 -0.0111,0.82175 -0.02221,0.82175c-0.01666,0 -0.22209,-0.06108 -0.4664,-0.13881c-1.12713,-0.35535 -2.01551,-1.2826 -2.31534,-2.42083zM36.53171,23.38924h1.6435l-0.07218,0.27207c-0.32204,1.22707 -1.29926,2.15432 -2.67624,2.53188l-0.1277,0.03331v-0.82175l0.00555,-0.82175l0.20544,-0.09439c0.32204,-0.14991 0.66628,-0.47195 0.85507,-0.79954zM24.46085,31.67338l0.45529,-0.0111v0.29428c0,0.16657 -0.01666,0.48861 -0.03331,0.72181l-0.03887,0.42753h-0.22765c-0.40532,0 -1.71013,0.17212 -2.37642,0.31093c-1.21597,0.25541 -2.59296,0.75512 -3.65901,1.32146l-0.48306,0.25541l-1.32146,-0.0111l-1.32702,-0.01666l0.41643,-0.30538c2.24316,-1.66016 4.9194,-2.65959 7.93989,-2.95942c0.1055,-0.0111 0.39977,-0.02776 0.65518,-0.02776zM27.52576,31.77888l0.21099,0.03331c0.11105,0.01666 0.50527,0.08884 0.87172,0.16102c2.20429,0.42753 4.34196,1.34923 6.12427,2.62072l0.51637,0.37201l-1.30481,0.01666l-1.30481,0.0111l-0.84951,-0.41088c-1.24928,-0.60521 -2.71511,-1.08271 -3.87,-1.26039l-0.4664,-0.07218l0.03887,-0.52748c0.01666,-0.29428 0.03331,-0.62742 0.03331,-0.73847z" fill="none" stroke-width="0"></path><g fill="#000000" stroke-width="1"><g><path d="M6.92645,24v10.9937l0.89948,-0.0111l0.89948,-0.01666l0.54969,-0.74957c0.29983,-0.41088 0.56634,-0.78288 0.58855,-0.8273c0.03887,-0.06108 0.06663,-0.06108 0.17768,0.00555c0.07218,0.04442 0.44419,0.26651 0.8273,0.48861c0.38311,0.22765 0.93835,0.55524 1.24373,0.73847l0.54413,0.32759l0.33869,-0.33314l0.33314,-0.33314l-0.97722,-1.166c-0.6996,-0.83841 -0.95501,-1.18266 -0.91059,-1.22152c0.21099,-0.16657 3.81448,-2.5652 3.85335,-2.5652c0.02221,0 0.4775,0.52748 1.00498,1.16045l0.96056,1.16045l0.43864,-0.19989c0.2443,-0.1055 0.44419,-0.21099 0.44419,-0.2332c0,-0.01666 -0.21099,-0.64408 -0.4664,-1.38809c-0.26096,-0.74957 -0.4664,-1.36588 -0.45529,-1.37144c0.05552,-0.06108 4.66399,-1.23818 4.69731,-1.19931c0.02221,0.02221 0.24986,0.64963 0.49971,1.39365l0.46085,1.34923l0.31093,-0.03331c0.7107,-0.07218 0.66073,-0.04442 0.69405,-0.43309c0.01666,-0.18878 0.06108,-0.83286 0.08884,-1.42696c0.03331,-0.5941 0.06663,-1.08827 0.07773,-1.09382c0.01666,-0.01666 4.88054,0.26096 4.89719,0.27762c0.00555,0.00555 -0.02221,0.64408 -0.06663,1.42141c-0.04442,0.77733 -0.06108,1.42696 -0.03887,1.44917c0.04442,0.03887 0.91614,0.2332 0.93835,0.20544c0.00555,-0.00555 0.28872,-0.5941 0.62742,-1.31036c0.33869,-0.71626 0.62742,-1.31036 0.63852,-1.32146c0.01666,-0.01666 0.31093,0.09439 2.53188,0.96056c0.50527,0.19989 1.15489,0.44974 1.44362,0.56079c0.28872,0.11105 0.53303,0.21099 0.54413,0.21654c0.01666,0.0111 -0.15547,0.39422 -0.66628,1.46583c-0.48861,1.01053 -0.57745,1.23818 -0.51082,1.26039c0.02776,0.0111 0.21099,0.1166 0.41088,0.2332l0.3609,0.22209l0.27762,-0.26096c0.15547,-0.14436 0.55524,-0.52748 0.88838,-0.84951c0.33869,-0.32759 0.7107,-0.67739 0.83841,-0.78844l0.22209,-0.19989l0.63852,0.53858c0.74402,0.62742 1.51025,1.27149 2.3431,1.97109c0.32759,0.27207 0.5941,0.51082 0.5941,0.53303c0,0.01666 -0.31649,0.33869 -0.70515,0.7107l-0.7107,0.67739h0.76623l0.76068,0.00555v-10.9937v-10.9937h-17.07355h-17.07355zM18.05341,14.01128c0.29428,0.08329 0.76623,0.55524 0.85507,0.86062c0.26096,0.88838 -0.35535,1.749 -1.26039,1.749c-1.13824,0.00555 -1.77676,-1.24928 -1.08827,-2.14877c0.14991,-0.19989 0.4775,-0.43309 0.67184,-0.48306c0.19433,-0.04997 0.60521,-0.03887 0.82175,0.02221zM22.61191,16.11563c0.52192,0.28317 1.0605,0.57189 1.19931,0.64408c0.32759,0.17768 0.43309,0.29428 0.47195,0.53303c0.06663,0.39422 -0.32204,0.77178 -0.69405,0.68294c-0.07773,-0.01666 -0.62187,-0.27762 -1.21042,-0.57189l-1.06606,-0.53858l-0.54413,0.18878c-0.29983,0.1055 -0.56634,0.20544 -0.5941,0.2332c-0.02776,0.02221 0.06663,0.21099 0.19989,0.42198c1.42141,2.15432 1.58798,2.44304 1.63795,2.84837c0.02776,0.22209 0.00555,0.31093 -0.1166,0.53303c-0.1277,0.22765 -0.30538,0.38867 -1.09937,0.96611c-0.52192,0.38311 -1.01053,0.74402 -1.08827,0.81065l-0.13881,0.1166l0.48861,1.07716c0.88838,1.95444 0.86617,1.89891 0.72736,2.24316c-0.20544,0.48306 -0.98832,0.56079 -1.26594,0.1277c-0.04442,-0.07218 -0.3609,-0.77733 -0.70515,-1.57132c-0.34425,-0.79399 -0.68849,-1.57687 -0.76068,-1.74345c-0.15547,-0.3498 -0.16657,-0.56634 -0.03887,-0.78288c0.04997,-0.08884 0.46085,-0.43309 0.91614,-0.76068c0.57189,-0.41643 0.8162,-0.62742 0.79954,-0.68849c-0.02221,-0.11105 -1.16045,-1.93778 -1.20487,-1.93778c-0.01666,0 -0.11105,0.26651 -0.21654,0.58855c-0.1055,0.32204 -0.2443,0.64408 -0.31093,0.7107c-0.09439,0.08884 -0.44419,0.19989 -1.37144,0.43864c-0.68849,0.17212 -1.31036,0.31649 -1.39365,0.31649c-0.07773,0 -0.22209,-0.07218 -0.31649,-0.15547c-0.22765,-0.20544 -0.28317,-0.61076 -0.11105,-0.87728c0.1055,-0.17212 0.14991,-0.18878 1.21042,-0.43864l1.10492,-0.26651l0.29428,-0.89393c0.16657,-0.49416 0.34425,-0.98277 0.40532,-1.08827c0.07218,-0.1277 0.29983,-0.32204 0.68294,-0.57745c0.51082,-0.33869 0.7107,-0.43309 1.64906,-0.76068c0.79954,-0.28317 1.12713,-0.37201 1.2937,-0.3609c0.14991,0.01666 0.52748,0.18878 1.166,0.53303zM35.29908,18.1478c0,0.39977 0.00555,0.41643 0.12215,0.39977c0.08884,-0.0111 0.14991,-0.09994 0.2332,-0.33314c0.06663,-0.17212 0.13881,-0.33314 0.15547,-0.35535c0.02221,-0.02221 0.30538,0.05552 0.62187,0.16657l0.583,0.21099l-0.13326,0.36646c-0.12215,0.33314 -0.1277,0.38311 -0.04997,0.45529c0.07218,0.07218 0.11105,0.04997 0.3609,-0.2332l0.28317,-0.32204l0.31093,0.24986c0.17212,0.13326 0.39977,0.31649 0.49971,0.39977l0.17768,0.15547l-0.24986,0.28872c-0.26651,0.30538 -0.28317,0.3498 -0.18323,0.44974c0.04442,0.04442 0.14991,0.01666 0.41643,-0.13881c0.19433,-0.1055 0.3609,-0.18878 0.37201,-0.17768c0.0111,0.0111 0.15547,0.24986 0.32759,0.53303c0.21654,0.3609 0.28317,0.52748 0.23875,0.56079c-0.03331,0.02776 -0.19433,0.12215 -0.3498,0.20544c-0.31093,0.16657 -0.32204,0.17768 -0.2443,0.29983c0.03887,0.06108 0.1166,0.06663 0.37201,0.02776c0.18323,-0.02776 0.3609,-0.04997 0.40532,-0.04997c0.06108,0 0.1055,0.15547 0.17768,0.55524c0.05552,0.30538 0.09994,0.583 0.09994,0.61631c0.00555,0.03887 -0.13881,0.07773 -0.33314,0.09994c-0.42753,0.04997 -0.49416,0.07773 -0.49416,0.19989c0,0.12215 0.06663,0.14991 0.49416,0.19989c0.19433,0.02221 0.33869,0.06108 0.33314,0.09994c0,0.03331 -0.04442,0.31093 -0.09994,0.61631c-0.07218,0.39977 -0.1166,0.55524 -0.17768,0.55524c-0.04442,0 -0.22209,-0.02221 -0.40532,-0.04997c-0.25541,-0.03887 -0.33314,-0.03331 -0.37201,0.02776c-0.07773,0.12215 -0.06663,0.13326 0.2443,0.29983c0.46085,0.2443 0.45529,0.20544 0.11105,0.76623c-0.16657,0.28317 -0.31649,0.52192 -0.32759,0.53303c-0.00555,0.0111 -0.17768,-0.07218 -0.37201,-0.17768c-0.26651,-0.15547 -0.37201,-0.18323 -0.41643,-0.13881c-0.09994,0.09994 -0.08329,0.14436 0.18323,0.44974l0.24986,0.28872l-0.17768,0.15547c-0.09994,0.08329 -0.32759,0.26651 -0.49971,0.39977l-0.31093,0.24986l-0.28317,-0.32204c-0.24986,-0.28317 -0.28872,-0.30538 -0.36646,-0.2332c-0.07218,0.07773 -0.06663,0.12215 0.04997,0.45529l0.13326,0.36646l-0.57745,0.20544c-0.32204,0.1166 -0.59966,0.18878 -0.62187,0.17212c-0.01666,-0.02221 -0.08884,-0.18323 -0.15547,-0.35535c-0.08329,-0.2332 -0.14436,-0.32204 -0.2332,-0.33314c-0.1166,-0.01666 -0.12215,0 -0.12215,0.40532v0.42198l-0.64963,-0.01666l-0.65518,-0.01666l-0.01666,-0.40532c-0.01666,-0.37756 -0.02221,-0.40532 -0.13326,-0.38867c-0.08329,0.0111 -0.14991,0.09994 -0.2332,0.33314c-0.06663,0.17212 -0.13881,0.33314 -0.15547,0.35535c-0.02221,0.02221 -0.30538,-0.05552 -0.62187,-0.16657l-0.583,-0.21099l0.13326,-0.36646c0.12215,-0.33314 0.1277,-0.38311 0.04997,-0.45529c-0.07218,-0.07218 -0.1166,-0.04997 -0.37201,0.23875l-0.28872,0.31649l-0.45529,-0.37201c-0.24986,-0.21099 -0.45529,-0.40532 -0.46085,-0.43309c0,-0.03331 0.09439,-0.17212 0.22209,-0.31649c0.23875,-0.27762 0.25541,-0.32204 0.16102,-0.41643c-0.04997,-0.04997 -0.15547,-0.01666 -0.42198,0.13326c-0.19989,0.1055 -0.36646,0.18323 -0.37756,0.17212c-0.07218,-0.07773 -0.583,-0.97167 -0.583,-1.02719c0,-0.03331 0.14991,-0.14436 0.33314,-0.24986c0.35535,-0.19433 0.3609,-0.19433 0.27762,-0.32204c-0.03887,-0.06663 -0.1055,-0.06663 -0.42753,-0.01666c-0.20544,0.03887 -0.39422,0.04997 -0.41088,0.02776c-0.02221,-0.02221 -0.06663,-0.23875 -0.1055,-0.48306c-0.03331,-0.2443 -0.07773,-0.51082 -0.09439,-0.59966c-0.02776,-0.13326 -0.0111,-0.14991 0.11105,-0.14991c0.07773,0 0.27207,-0.02776 0.42753,-0.06108c0.21099,-0.04442 0.27762,-0.08329 0.27762,-0.16102c0,-0.07773 -0.06663,-0.1166 -0.27762,-0.16102c-0.15547,-0.03331 -0.3498,-0.06108 -0.42753,-0.06108c-0.12215,0 -0.13881,-0.01666 -0.11105,-0.15547c0.01666,-0.08329 0.06108,-0.3498 0.09439,-0.5941c0.03887,-0.2443 0.08329,-0.46085 0.1055,-0.48306c0.01666,-0.02221 0.20544,-0.0111 0.41088,0.02776c0.32204,0.04997 0.38867,0.04997 0.42753,-0.01666c0.08329,-0.1277 0.07773,-0.1277 -0.27762,-0.32204c-0.18323,-0.1055 -0.33314,-0.21654 -0.33314,-0.24986c0,-0.05552 0.51082,-0.94946 0.583,-1.02719c0.0111,-0.0111 0.17768,0.06663 0.37756,0.17212c0.26651,0.14991 0.37201,0.18323 0.42198,0.13326c0.09439,-0.09439 0.07773,-0.13881 -0.16102,-0.41643c-0.1277,-0.14436 -0.22209,-0.28872 -0.22209,-0.31649c0.00555,-0.03331 0.21099,-0.22209 0.46085,-0.43309l0.45529,-0.37201l0.28872,0.31649c0.26096,0.28872 0.29428,0.31649 0.37756,0.23875c0.07773,-0.07773 0.07218,-0.12215 -0.05552,-0.44419c-0.07773,-0.19433 -0.13881,-0.3609 -0.13881,-0.36646c0,-0.04997 1.18266,-0.41643 1.21597,-0.37756c0.02776,0.02776 0.09994,0.18878 0.16102,0.35535c0.07773,0.22209 0.13881,0.31093 0.22765,0.32204c0.11105,0.01666 0.1166,-0.00555 0.1166,-0.36646c0,-0.21099 0.01666,-0.39977 0.03887,-0.41643c0.01666,-0.02221 0.31649,-0.03887 0.66628,-0.03887h0.62742zM22.89508,21.72353l0.31649,0.44419h1.36588c1.25484,0 1.38254,0.0111 1.54356,0.11105c0.09994,0.05552 0.21654,0.18323 0.26651,0.27207c0.17212,0.33869 0.06108,0.75512 -0.26651,0.94946c-0.16657,0.1055 -0.28872,0.11105 -1.8767,0.11105c-2.01551,0 -1.84339,0.05552 -2.43194,-0.8162l-0.38867,-0.56079l0.39422,-0.29428c0.21654,-0.16102 0.45529,-0.38311 0.53858,-0.49416c0.07773,-0.1166 0.16102,-0.19989 0.17768,-0.18878c0.02221,0.0111 0.18323,0.22209 0.3609,0.4664z"></path><path d="M33.46124,19.47482c-1.11603,0.3609 -2.00441,1.2937 -2.29868,2.42083l-0.07218,0.27207h0.82175h0.82175l0.16657,-0.29428c0.19433,-0.34425 0.59966,-0.72736 0.87728,-0.8273l0.18878,-0.06663v-0.82175c0,-0.44974 -0.01666,-0.82175 -0.03887,-0.82175c-0.02776,0.00555 -0.2332,0.06663 -0.4664,0.13881z"></path><path d="M35.29908,20.1522l0.00555,0.82175l0.20544,0.09439c0.32204,0.14991 0.66628,0.47195 0.85507,0.79954l0.16657,0.29983h0.82175h0.82175l-0.07218,-0.27207c-0.32204,-1.22707 -1.29926,-2.15432 -2.67624,-2.53188l-0.1277,-0.03331z"></path><path d="M34.19971,21.92341c-0.60521,0.31093 -0.72181,1.06606 -0.22765,1.53246c0.61076,0.57745 1.62685,0.15547 1.62685,-0.67739c0,-0.51637 -0.37201,-0.89948 -0.89948,-0.92725c-0.21654,-0.01666 -0.37201,0.0111 -0.49971,0.07218z"></path><path d="M31.16256,23.66131c0.29983,1.13824 1.18821,2.06548 2.31534,2.42083c0.2443,0.07773 0.44974,0.13881 0.4664,0.13881c0.0111,0 0.02221,-0.37201 0.02221,-0.82175v-0.82175l-0.18878,-0.06663c-0.27762,-0.09994 -0.68294,-0.48306 -0.87728,-0.8273l-0.16657,-0.29428h-0.82175h-0.82175z"></path><path d="M36.36514,23.68907c-0.18878,0.32759 -0.53303,0.64963 -0.85507,0.79954l-0.20544,0.09439l-0.00555,0.82175v0.82175l0.1277,-0.03331c1.37699,-0.37756 2.35421,-1.30481 2.67624,-2.53188l0.07218,-0.27207h-0.82175h-0.82175z"></path><path d="M23.80567,31.70114c-3.02049,0.29983 -5.69674,1.29926 -7.93989,2.95942l-0.41643,0.30538l1.32702,0.01666l1.32146,0.0111l0.48306,-0.25541c1.06606,-0.56634 2.44304,-1.06606 3.65901,-1.32146c0.66628,-0.13881 1.97109,-0.31093 2.37642,-0.31093h0.22765l0.03887,-0.42753c0.01666,-0.2332 0.03331,-0.55524 0.03331,-0.72181v-0.29428l-0.45529,0.0111c-0.25541,0 -0.54969,0.01666 -0.65518,0.02776z"></path><path d="M27.52576,31.98431c0,0.11105 -0.01666,0.44419 -0.03331,0.73847l-0.03887,0.52748l0.4664,0.07218c1.15489,0.17768 2.62072,0.65518 3.87,1.26039l0.84951,0.41088l1.30481,-0.0111l1.30481,-0.01666l-0.51637,-0.37201c-1.78231,-1.27149 -3.91998,-2.19319 -6.12427,-2.62072c-0.36646,-0.07218 -0.76068,-0.14436 -0.87172,-0.16102l-0.21099,-0.03331z"></path></g></g><path d="M2,24c0,-12.15026 9.84974,-22 22,-22c12.15026,0 22,9.84974 22,22c0,12.15026 -9.84974,22 -22,22c-12.15026,0 -22,-9.84974 -22,-22z" id="base 1 1 1" fill="none" stroke-width="1"></path><g fill="#000000" stroke-width="1" font-family="Roboto, sans-serif" font-weight="normal" font-size="14" text-anchor="start"><g></g></g><rect x="2" y="2" width="44" height="22" fill="none" stroke-width="1"></rect><path d="M2,24v-22h44v22z" fill="none" stroke-width="1"></path><path d="M2,24v-22h44v22z" fill="none" stroke-width="1"></path><path d="M2,24v-22h44v22z" fill="none" stroke-width="1"></path><path d="M2,24v-22h44v22z" fill="none" stroke-width="1"></path></g></svg>